<svg xmlns="http://www.w3.org/2000/svg" viewBox="0 0 271.29 275.09"><defs><style>.cls-1{fill:#4285f4;}.cls-2{fill:#fbbc05;}.cls-3{fill:#ea4335;}</style></defs><title>3blox</title><g id="Layer_2" data-name="Layer 2"><g id="Layer_2-2" data-name="Layer 2"><path id="_Compound_Path_" data-name="&lt;Compound Path&gt;" class="cls-1" d="M201.65,39.88h0L137.07,0,69.54,40.9l-.37-.22v.44l-.32.19.32.2L69,120.34l64.56,40.51,0,1.22.47-.29.25-.5,1.18.74.1-3.2c.07-.1.12-.22.18-.32l-.17.11,2.42-75,.06,0V82h0l62.75-39.37-.07,76.68c.75-.08,1.39-1.13,1.89-.74l.08-78.09ZM137.06,2.22,199.85,41,167,61.63l-30.26,19L71.8,41.32Zm-3.42,156.43L70.91,119.29V43L136.1,82.47,136,84.32Z"/><path id="_Compound_Path_2" data-name="&lt;Compound Path&gt;" class="cls-2" d="M271,157.33l-1-.62-.05,0-67.58-38.69-.49-.28-69.38,42.57,1.14.62-.2.45a3.34,3.34,0,0,1,1.88,1.2v-.74l63.07,34v.75l-1.83,75.57-62.08-36.07-1.27-.88c-.5.62.2.24-.51.68l-.12.06v1.23l64.74,37.92,73.45-44,.47-.28ZM202,120l66,37.52L199.09,194l-.06,0-62.64-33.76Zm-3.46,152.11,1.82-75.24,0,0v-1.44h0l68.77-36.08.23,70.43Z"/><path id="_Compound_Path_3" data-name="&lt;Compound Path&gt;" class="cls-3" d="M136.36,160.36l-1.39-.87h0l-.47-.3L133,160l-.73.07.27.17L67.09,194.9,2.88,155.35l67-34.44,1.12.7a3,3,0,0,1,.73-1.78L70,118.73.47,154,0,238.15l67.9,35.57V274l.24-.13.24.12v-.25l65.34-35.94.49-.26,1.27-76.69ZM66.48,270.83,1.9,237V157l64.58,39.78Zm65.85-34.46L69,270.81l-.63-74.45,65.18-34.52Z"/></g></g></svg>