<svg xmlns="http://www.w3.org/2000/svg" viewBox="0 0 223.42 32.64"><defs><style>.cls-1{fill:#4285f4;}.cls-2{fill:#fbc016;}.cls-3{fill:#34a853;}.cls-4{fill:#ea4335;}</style></defs><title>Asset 2</title><g id="Layer_2" data-name="Layer 2"><g id="Layer_2-2" data-name="Layer 2"><path id="_Compound_Path_" data-name="&lt;Compound Path&gt;" class="cls-1" d="M.45,8.68C.49,2,7.06.05,12.59.05c6.79,0,11.91,3.32,12,8.9a7.09,7.09,0,0,1-5.62,6.79c3.41.85,6.25,3.73,6.25,7.23,0,6.21-5.58,9.4-12.64,9.4C6.88,32.37,0,30.39,0,23.42H3.91c0,4.72,5.35,5.35,8.72,5.35,5,0,8.63-2,8.63-5.66,0-2.65-2.38-5.62-8.45-5.62H7.73V14.21h4.81c4.86,0,8.1-2.25,8.14-5.22.05-2.61-2.34-5.35-8-5.35-3.37,0-8.22.86-8.22,5.08H.54Z"/><path id="_Compound_Path_2" data-name="&lt;Compound Path&gt;" class="cls-2" d="M104.76,28.37h17.13V32h-21V.54h3.91Z"/><path id="_Compound_Path_3" data-name="&lt;Compound Path&gt;" class="cls-1" d="M174.32,16.36c0,8.23-5.17,16.28-16,16.28s-16-8-16-16.28C142.35,7.24,148.47,0,158.4,0,169.06.05,174.36,8.05,174.32,16.36ZM158.4,3.6c-8,0-12.14,5.89-12.14,12.76,0,6.39,3.87,12.59,12.14,12.59s12-6.38,12-12.59C170.45,10,166.63,3.69,158.4,3.6Z"/><path id="_Compound_Path_4" data-name="&lt;Compound Path&gt;" class="cls-3" d="M195.31.55h4.13q.1,0,9.44,12.38.69-.75,9.46-12.38h4.22V.64L211,15.68v.08l12.39,16.16V32h-4.13L195.31.64Z"/><path id="_Path_" data-name="&lt;Path&gt;" class="cls-4" d="M70.14,15.83a6.83,6.83,0,0,0,4.68-6.48c0-6-4.86-8.81-10.57-8.81H50.49V24.18H54.4V4.09h9.85c3.87,0,6.7,1.8,6.7,5.31,0,3.28-2.74,4.67-6.52,4.67H58.67v3.55h5.76c3.42,0,7.42,1.62,7.46,5.58,0,4.27-4.36,5.12-7.64,5.12l-13.76-.08V32H64.25c5.93,0,11.55-2,11.55-8.68A7.82,7.82,0,0,0,70.14,15.83Z"/></g></g></svg>